<svg width="55" height="55" viewBox="0 0 55 55" fill="none" xmlns="http://www.w3.org/2000/svg">
<g clip-path="url(#clip0_357_31)">
<path d="M27.5 0C12.3362 0 0 12.3362 0 27.5C0 42.6627 12.3362 55 27.5 55C42.6638 55 55 42.6627 55 27.5C55 12.3362 42.6638 0 27.5 0ZM27.5 50.4167C14.8639 50.4167 4.58333 40.1361 4.58333 27.5C4.58333 14.8639 14.8639 4.58333 27.5 4.58333C40.1361 4.58333 50.4167 14.8639 50.4167 27.5C50.4167 40.1361 40.1361 50.4167 27.5 50.4167Z" fill="#333333"/>
<path d="M30.7083 13.526C30.4073 13.3951 30.1012 13.291 29.793 13.2003V9.16699H25.2096V13.2155C23.0271 13.8751 21.136 15.4506 20.1625 17.7026C19.3109 19.6686 19.2779 21.8489 20.0663 23.8407C20.8546 25.833 22.3713 27.3985 24.3883 28.2702L28.8452 30.0751C29.6878 30.4382 30.3385 31.1096 30.6764 31.9634C31.0143 32.8172 30.9998 33.7521 30.635 34.5941C30.2708 35.4361 29.5994 36.0874 28.7456 36.4253C27.8907 36.7632 26.958 36.7492 26.116 36.3839C24.8717 35.8457 24.066 34.607 24.0649 33.2284L24.0638 30.9367L19.4805 30.9412L19.4816 33.2328C19.4838 36.4376 21.3732 39.3251 24.2954 40.5912C24.5953 40.7211 24.9014 40.8262 25.2108 40.918V45.8337H29.7941V40.9046C30.0084 40.8391 30.2227 40.768 30.4336 40.6841C32.4248 39.8958 33.9903 38.3779 34.8412 36.4113C35.6928 34.4453 35.7263 32.2661 34.938 30.2743C34.1491 28.2831 32.6324 26.7176 30.6154 25.8448L26.1585 24.041C25.3159 23.6768 24.6653 23.0054 24.3273 22.1516C23.9894 21.2978 24.0045 20.3629 24.3687 19.5209C24.733 18.6783 25.4043 18.0276 26.2581 17.6897C27.1108 17.3529 28.0457 17.3663 28.8888 17.7311C30.1147 18.2626 30.9388 19.4258 30.9388 20.6253V22.917H35.5221V20.6253C35.5221 17.5772 33.6327 14.791 30.7083 13.526Z" fill="#333333"/>
</g>
<defs>
<clipPath id="clip0_357_31">
<rect width="55" height="55" fill="white"/>
</clipPath>
</defs>
</svg>
