<svg width="20" height="20" viewBox="0 0 512 512" fill="none" xmlns="http://www.w3.org/2000/svg">
<path d="M208 32C161.322 32 116.556 50.5428 83.5492 83.5492C50.5428 116.556 32 161.322 32 208C32 254.678 50.5428 299.444 83.5492 332.451C116.556 365.457 161.322 384 208 384C224.239 384.068 240.404 381.805 256 377.28V376C256 344.174 268.643 313.652 291.147 291.147C313.652 268.643 344.174 256 376 256H377.28C381.805 240.404 384.068 224.239 384 208C383.97 161.331 365.418 116.582 332.418 83.582C299.418 50.582 254.669 32.0297 208 32V32ZM208 192C219.309 191.979 230.261 195.96 238.916 203.24C247.571 210.52 253.37 220.627 255.286 231.773C257.203 242.919 255.113 254.383 249.386 264.135C243.66 273.888 234.667 281.299 224 285.056V293.328C224 297.571 222.314 301.641 219.314 304.642C216.313 307.642 212.243 309.328 208 309.328C203.757 309.328 199.687 307.642 196.686 304.642C193.686 301.641 192 297.571 192 293.328V285.056C182.673 281.759 174.593 275.66 168.865 267.595C163.137 259.53 160.041 249.892 160 240C160 235.757 161.686 231.687 164.686 228.686C167.687 225.686 171.757 224 176 224C180.243 224 184.313 225.686 187.314 228.686C190.314 231.687 192 235.757 192 240C192 243.165 192.938 246.258 194.696 248.889C196.455 251.52 198.953 253.571 201.877 254.782C204.801 255.993 208.018 256.31 211.121 255.693C214.225 255.075 217.076 253.551 219.314 251.314C221.551 249.076 223.075 246.225 223.693 243.121C224.31 240.018 223.993 236.801 222.782 233.877C221.571 230.953 219.52 228.455 216.889 226.696C214.258 224.938 211.165 224 208 224C196.691 224.021 185.739 220.04 177.084 212.76C168.429 205.48 162.63 195.373 160.714 184.227C158.797 173.081 160.887 161.617 166.614 151.865C172.34 142.112 181.333 134.701 192 130.944V122.672C192 118.429 193.686 114.359 196.686 111.358C199.687 108.358 203.757 106.672 208 106.672C212.243 106.672 216.313 108.358 219.314 111.358C222.314 114.359 224 118.429 224 122.672V130.944C233.327 134.241 241.407 140.34 247.135 148.405C252.863 156.47 255.959 166.108 256 176C256 180.243 254.314 184.313 251.314 187.314C248.313 190.314 244.243 192 240 192C235.757 192 231.687 190.314 228.686 187.314C225.686 184.313 224 180.243 224 176C224 172.835 223.062 169.742 221.304 167.111C219.545 164.48 217.047 162.429 214.123 161.218C211.199 160.007 207.982 159.69 204.879 160.307C201.775 160.925 198.924 162.449 196.686 164.686C194.449 166.924 192.925 169.775 192.307 172.879C191.69 175.982 192.007 179.199 193.218 182.123C194.429 185.047 196.48 187.545 199.111 189.304C201.742 191.062 204.835 192 208 192Z" fill="#6661E7"/>
<path d="M376 272C355.431 272 335.323 278.099 318.221 289.527C301.118 300.955 287.788 317.197 279.917 336.201C272.045 355.204 269.986 376.115 273.998 396.289C278.011 416.463 287.916 434.994 302.461 449.539C317.006 464.084 335.537 473.989 355.711 478.002C375.885 482.015 396.796 479.955 415.799 472.083C434.803 464.212 451.045 450.882 462.473 433.779C473.901 416.677 480 396.569 480 376C479.966 348.428 468.998 321.995 449.502 302.498C430.005 283.002 403.572 272.034 376 272V272ZM419.312 365.984L376.64 408.656C373.64 411.656 369.571 413.341 365.328 413.341C361.085 413.341 357.016 411.656 354.016 408.656L332.688 387.312C329.774 384.294 328.161 380.253 328.197 376.058C328.234 371.862 329.916 367.849 332.883 364.883C335.849 361.916 339.862 360.234 344.058 360.197C348.253 360.161 352.294 361.773 355.312 364.688L365.328 374.704L396.688 343.344C398.175 341.858 399.939 340.68 401.881 339.877C403.823 339.073 405.904 338.66 408.006 338.661C410.107 338.662 412.188 339.076 414.129 339.881C416.071 340.686 417.835 341.865 419.32 343.352C420.806 344.839 421.984 346.603 422.787 348.545C423.591 350.487 424.004 352.568 424.003 354.67C424.003 356.771 423.588 358.852 422.783 360.793C421.978 362.735 420.799 364.498 419.312 365.984V365.984Z" fill="#28A745"/>
</svg>
