<svg width="24" height="24" viewBox="0 0 24 24" fill="none" xmlns="http://www.w3.org/2000/svg">
<path d="M11.7483 15.2537C11.6203 15.254 11.4934 15.2289 11.3751 15.1799C11.2568 15.1309 11.1494 15.0588 11.0591 14.968L8.11768 12.0259C7.74848 11.6569 7.45561 11.2187 7.25579 10.7365C7.05597 10.2543 6.95312 9.73738 6.95312 9.21539C6.95312 8.6934 7.05597 8.17652 7.25579 7.69429C7.45561 7.21205 7.74848 6.77391 8.11768 6.4049L12.4822 2.04004C13.228 1.29527 14.2389 0.876953 15.2929 0.876953C16.3468 0.876953 17.3577 1.29527 18.1035 2.04004L20.9497 4.88586C21.6937 5.63198 22.1115 6.64266 22.1115 7.69635C22.1115 8.75003 21.6937 9.76072 20.9497 10.5068L18.5137 12.9425C18.4233 13.0338 18.3158 13.1063 18.1974 13.1558C18.0789 13.2054 17.9518 13.2311 17.8234 13.2314C17.6949 13.2317 17.5677 13.2066 17.449 13.1576C17.3303 13.1086 17.2224 13.0366 17.1316 12.9458C17.0408 12.855 16.9689 12.7471 16.9199 12.6284C16.8709 12.5097 16.8459 12.3824 16.8462 12.254C16.8466 12.1256 16.8723 11.9985 16.9219 11.88C16.9715 11.7616 17.044 11.6541 17.1353 11.5637L19.5713 9.12844C19.9502 8.74814 20.1629 8.23319 20.1629 7.69637C20.1629 7.15955 19.9502 6.6446 19.5713 6.2643L16.7251 3.41846C16.3449 3.03925 15.8299 2.82629 15.2929 2.82629C14.7559 2.82629 14.2408 3.03925 13.8606 3.41846L9.49614 7.78332C9.30805 7.97137 9.15885 8.19463 9.05706 8.44034C8.95526 8.68606 8.90287 8.94942 8.90287 9.21539C8.90287 9.48136 8.95526 9.74472 9.05706 9.99043C9.15885 10.2362 9.30805 10.4594 9.49614 10.6475L12.4375 13.5896C12.5739 13.7259 12.6668 13.8996 12.7045 14.0887C12.7421 14.2778 12.7228 14.4738 12.649 14.6519C12.5753 14.8301 12.4503 14.9823 12.29 15.0894C12.1296 15.1966 11.9411 15.2537 11.7483 15.2537Z" fill="#6661E7"/>
<path d="M8.70894 23.1235C8.18687 23.1253 7.66965 23.0234 7.18725 22.8238C6.70484 22.6242 6.26684 22.3309 5.89863 21.9608L3.05244 19.115C2.30843 18.3688 1.89062 17.3581 1.89062 16.3045C1.89062 15.2508 2.30843 14.2401 3.05244 13.494L5.48844 11.0583C5.67128 10.8755 5.91924 10.7728 6.17778 10.7729C6.43632 10.7729 6.68426 10.8756 6.86705 11.0585C7.04984 11.2413 7.15252 11.4893 7.15249 11.7478C7.15246 12.0063 7.04973 12.2543 6.86689 12.4371L4.43089 14.8724C4.05201 15.2527 3.83928 15.7676 3.83928 16.3044C3.83928 16.8413 4.05201 17.3562 4.43089 17.7365L7.27708 20.5823C7.65728 20.9615 8.17235 21.1745 8.70933 21.1745C9.24631 21.1745 9.76138 20.9615 10.1416 20.5823L14.5061 16.2175C14.6942 16.0294 14.8434 15.8062 14.9452 15.5604C15.047 15.3147 15.0993 15.0514 15.0993 14.7854C15.0993 14.5194 15.047 14.2561 14.9452 14.0104C14.8434 13.7646 14.6942 13.5414 14.5061 13.3533L11.5647 10.4112C11.4733 10.3209 11.4006 10.2134 11.3509 10.0949C11.3012 9.97645 11.2754 9.8493 11.275 9.7208C11.2746 9.59231 11.2997 9.46501 11.3487 9.34622C11.3976 9.22743 11.4696 9.11951 11.5605 9.02865C11.6514 8.93779 11.7593 8.86579 11.8781 8.8168C11.9969 8.7678 12.1242 8.74278 12.2527 8.74317C12.3811 8.74356 12.5083 8.76935 12.6268 8.81906C12.7453 8.86877 12.8528 8.94142 12.9431 9.03282L15.8845 11.975C16.2537 12.344 16.5465 12.7821 16.7464 13.2643C16.9462 13.7466 17.049 14.2635 17.049 14.7854C17.049 15.3074 16.9462 15.8243 16.7464 16.3065C16.5465 16.7888 16.2537 17.2269 15.8845 17.5959L11.52 21.9608C11.1517 22.331 10.7135 22.6243 10.231 22.8239C9.74847 23.0235 9.23112 23.1253 8.70894 23.1235Z" fill="#6661E7"/>
</svg>
